<?xml version="1.0" encoding="UTF-8" standalone="no"?>
<!-- Created with Inkscape (http://www.inkscape.org/) -->

<svg
   xmlns:dc="http://purl.org/dc/elements/1.1/"
   xmlns:cc="http://creativecommons.org/ns#"
   xmlns:rdf="http://www.w3.org/1999/02/22-rdf-syntax-ns#"
   xmlns:svg="http://www.w3.org/2000/svg"
   xmlns="http://www.w3.org/2000/svg"
   xmlns:sodipodi="http://sodipodi.sourceforge.net/DTD/sodipodi-0.dtd"
   xmlns:inkscape="http://www.inkscape.org/namespaces/inkscape"
   width="112.1741mm"
   height="112.81998mm"
   viewBox="0 0 112.1741 112.81998"
   version="1.1"
   id="svg1559"
   inkscape:version="0.92.3 (2405546, 2018-03-11)"
   sodipodi:docname="bitcoin seoul logo .svg">
  <defs
     id="defs1553" />
  <sodipodi:namedview
     id="base"
     pagecolor="#ffffff"
     bordercolor="#666666"
     borderopacity="1.0"
     inkscape:pageopacity="0.0"
     inkscape:pageshadow="2"
     inkscape:zoom="11.2"
     inkscape:cx="182.24773"
     inkscape:cy="285.90382"
     inkscape:document-units="mm"
     inkscape:current-layer="layer1"
     showgrid="false"
     fit-margin-top="5"
     fit-margin-left="5"
     fit-margin-right="5"
     fit-margin-bottom="5"
     inkscape:window-width="2493"
     inkscape:window-height="1385"
     inkscape:window-x="67"
     inkscape:window-y="27"
     inkscape:window-maximized="1"
     inkscape:measure-start="242.054,316.161"
     inkscape:measure-end="245.446,256.429" />
  <metadata
     id="metadata1556">
    <rdf:RDF>
      <cc:Work
         rdf:about="">
        <dc:format>image/svg+xml</dc:format>
        <dc:type
           rdf:resource="http://purl.org/dc/dcmitype/StillImage" />
        <dc:title />
      </cc:Work>
    </rdf:RDF>
  </metadata>
  <g
     inkscape:label="Layer 1"
     inkscape:groupmode="layer"
     id="layer1"
     transform="translate(-48.912951,-92.090013)">
    <g
       id="g2136"
       transform="translate(33.938192,4.9583406)">
      <circle
         inkscape:export-ydpi="96"
         inkscape:export-xdpi="96"
         inkscape:export-filename="/home/ben/path4836-6-6-1.png"
         transform="rotate(-56.309933)"
         style="fill:#000000;fill-opacity:0.10045663;stroke:none;stroke-width:0.2559211;stroke-miterlimit:4;stroke-dasharray:none;stroke-opacity:0.30136988"
         cy="139.3485"
         cx="-80.368538"
         r="50.784344"
         id="circle1345-3" />
      <circle
         inkscape:export-ydpi="96"
         inkscape:export-xdpi="96"
         inkscape:export-filename="/home/ben/path4836-6-6-1.png"
         transform="rotate(-56.309933)"
         style="fill:#cd2e3a;stroke:#851e26;stroke-width:0.2559211;stroke-miterlimit:4;stroke-dasharray:none;stroke-opacity:1"
         cy="138.33464"
         cx="-79.70002"
         r="50.784344"
         id="circle1345" />
      <path
         inkscape:export-ydpi="96"
         inkscape:export-xdpi="96"
         inkscape:export-filename="/home/ben/path4836-6-6-1.png"
         style="fill:#0047a0;stroke:#000000;stroke-width:0.26499999;stroke-miterlimit:4;stroke-dasharray:none;stroke-opacity:0.23744291"
         inkscape:connector-curvature="0"
         d="m 28.636571,114.87858 a 25.392173,25.392173 0 0 0 42.25513,28.17008 25.392176,25.392176 0 0 1 42.255139,28.17008 50.784347,50.784347 0 0 1 -84.510269,-56.34016 z"
         id="path1347" />
      <path
         inkscape:export-ydpi="96"
         inkscape:export-xdpi="96"
         inkscape:export-filename="/home/ben/path4836-6-6-1.png"
         style="fill:#000000;fill-opacity:0.28310505;stroke-width:1.55205441"
         inkscape:connector-curvature="0"
         d="m 90.550261,132.09158 c -0.5233,-6.66169 -6.22528,-8.99139 -13.46235,-9.75289 l 0.16083,-9.22485 -5.61506,-0.0974 -0.15645,8.98175 c -1.4762,-0.0258 -2.9855,-0.0228 -4.48515,-0.019 l 0.15862,-9.04119 -5.61206,-0.0981 -0.16297,9.2222 c -1.21612,0.004 -2.41031,0.006 -3.57454,-0.0142 l -5.3e-4,-0.0299 -7.74454,-0.13818 -0.10368,5.99716 c 0,0 4.14791,-0.007 4.07767,0.0682 2.27438,0.0402 2.99162,1.37368 3.18704,2.51688 l -0.18295,10.50905 c 0.15729,0.007 0.36135,0.0133 0.59305,0.0498 -0.18773,-0.004 -0.38703,-0.007 -0.59335,-0.009 l -0.25797,14.72206 c -0.11208,0.71399 -0.55299,1.84799 -2.14202,1.82302 0.0693,0.0652 -4.08174,-0.0722 -4.08174,-0.0722 l -1.23273,6.68637 7.30724,0.12728 c 1.35987,0.0257 2.69742,0.0718 4.01082,0.10302 l -0.16085,9.3299 5.60901,0.0988 0.16101,-9.2313 c 1.53954,0.0588 3.02972,0.097 4.4848,0.12109 l -0.16239,9.18867 5.61509,0.0974 0.16457,-9.31327 c 9.44957,-0.37683 16.09825,-2.63982 17.07345,-11.49036 0.78703,-7.12663 -2.51518,-10.37038 -7.8515,-11.75067 3.28449,-1.60095 5.37087,-4.48624 4.97976,-9.36097 z m -8.20405,19.81235 c -0.1187,6.97231 -12.04313,5.97093 -15.84867,5.90812 l 0.21678,-12.36156 c 3.80661,0.0674 15.75889,-0.81889 15.63147,6.45343 z m -2.3071,-17.48603 c -0.11272,6.34336 -10.05598,5.42932 -13.22579,5.37427 l 0.19606,-11.21136 c 3.16975,0.0551 13.14454,-0.77911 13.02973,5.83709 z"
         id="path4836-6-6-1-8" />
      <path
         inkscape:export-ydpi="96"
         inkscape:export-xdpi="96"
         inkscape:export-filename="/home/ben/path4836-6-6-1.png"
         style="fill:#ffffff;stroke-width:1.55205441"
         inkscape:connector-curvature="0"
         d="m 89.891433,131.52051 c -0.593031,-6.65585 -6.319097,-8.92572 -13.563743,-9.61139 l 0.06423,-9.22603 -5.615773,-0.0386 -0.06238,8.98291 c -1.476389,-0.0102 -2.985575,0.008 -4.4851,0.0284 l 0.06394,-9.04235 -5.612779,-0.0393 -0.06638,9.22341 c -1.216014,0.0164 -2.410116,0.0312 -3.574497,0.0226 l -8.43e-4,-0.0299 -7.745563,-0.0571 -0.04086,5.99794 c 0,0 4.147608,-0.0502 4.07817,0.0256 2.274666,0.0162 3.005832,1.34229 3.213212,2.48337 l -0.07289,10.5104 c 0.157362,0.007 0.361466,0.01 0.593547,0.0438 -0.187768,-0.004 -0.387074,-0.001 -0.593421,-0.003 l -0.103804,14.724 c -0.104598,0.71514 -0.533608,1.8537 -2.122801,1.84536 0.06996,0.0646 -4.082274,-0.0296 -4.082274,-0.0296 l -1.162653,6.69891 7.30817,0.0506 c 1.360065,0.0113 2.698025,0.0436 4.01168,0.061 l -0.06314,9.33109 5.609737,0.04 0.06434,-9.23248 c 1.540081,0.0426 3.030569,0.0652 4.485821,0.0742 l -0.06616,9.18986 5.615802,0.0386 0.06704,-9.31447 c 9.445104,-0.47575 16.069723,-2.80825 16.952181,-11.66851 0.712357,-7.13449 -2.62363,-10.34348 -7.974122,-11.66782 3.267546,-1.63526 5.323598,-4.54223 4.88146,-9.4126 z m -7.996132,19.89716 c -0.04568,6.97318 -11.979942,6.09671 -15.785931,6.07374 l 0.08732,-12.36313 c 3.807107,0.0277 15.749451,-0.98388 15.69819,6.28939 z m -2.490082,-17.4609 c -0.0463,6.34419 -9.998574,5.53432 -13.168786,5.51247 l 0.07864,-11.2128 c 3.170154,0.0221 13.135661,-0.91671 13.09014,5.70033 z"
         id="path4836-6-6-1" />
    </g>
  </g>
</svg>
